<svg xmlns="http://www.w3.org/2000/svg" xmlns:xlink="http://www.w3.org/1999/xlink" width="42" height="42" viewBox="0 0 42 42">
  <defs>
    <clipPath id="clip-path">
      <rect id="Rectangle_310" data-name="Rectangle 310" width="29.933" height="25.824" fill="none"/>
    </clipPath>
  </defs>
  <g id="Group_220" data-name="Group 220" transform="translate(-8974 657)">
    <rect id="Rectangle_315" data-name="Rectangle 315" width="42" height="42" transform="translate(8974 -657)" fill="none"/>
    <g id="Group_214" data-name="Group 214" transform="translate(8980 -649)">
      <g id="Group_213" data-name="Group 213" transform="translate(0 0)" clip-path="url(#clip-path)">
        <path id="Path_121" data-name="Path 121" d="M16.423,6.707a15.187,15.187,0,0,1,7.758,2.532,3.12,3.12,0,0,1,1.681-.867A3.257,3.257,0,0,1,29.142,9.53a3.15,3.15,0,0,1,.538,3.331,3.886,3.886,0,0,1-1.454,1.711.368.368,0,0,0-.142.278,7.536,7.536,0,0,1-1.42,5.85,11.268,11.268,0,0,1-4.018,3.341,15.992,15.992,0,0,1-5.964,1.7,17.34,17.34,0,0,1-8.653-1.334A11.193,11.193,0,0,1,3.1,20.484a7.437,7.437,0,0,1-1.247-5.595.282.282,0,0,0-.159-.328A3.507,3.507,0,0,1,0,11.388a3.261,3.261,0,0,1,3.966-3,14.4,14.4,0,0,1,1.75.746.393.393,0,0,0,.312.006A14.376,14.376,0,0,1,11.673,6.86c.945-.164,1.907-.227,2.864-.313a.323.323,0,0,0,.338-.271Q15.743,3.5,16.625.72A.836.836,0,0,1,17.771.042c1.617.346,3.238.685,4.855,1.039a.386.386,0,0,0,.447-.145,2.562,2.562,0,0,1,4.042.163,2.5,2.5,0,0,1-1.708,3.859,2.583,2.583,0,0,1-2.928-1.928.394.394,0,0,0-.355-.338c-1.26-.261-2.514-.534-3.772-.8-.107-.024-.215-.04-.358-.066L16.423,6.707M14.643,22.295a8.74,8.74,0,0,0,4.349-.97,2.6,2.6,0,0,0,1.082-.887.632.632,0,0,0-.213-.956.741.741,0,0,0-.948,0,6.894,6.894,0,0,1-7.92-.01.818.818,0,0,0-1.118.163.725.725,0,0,0,.079.96,1.5,1.5,0,0,0,.289.257,7.737,7.737,0,0,0,4.4,1.443m4.9-5.731a2.046,2.046,0,0,0,.052-4.092,2.046,2.046,0,0,0-.052,4.092m-9.188-4.092a2.046,2.046,0,1,0,.045,4.092,2.114,2.114,0,0,0,2-2.029,2.087,2.087,0,0,0-2.044-2.063" transform="translate(0 0)"/>
      </g>
    </g>
  </g>
</svg>
