<svg xmlns="http://www.w3.org/2000/svg" width="55.275" height="55.274" viewBox="0 0 55.275 55.274">
  <path id="Path_123" data-name="Path 123" d="M41.082,13.629A27.387,27.387,0,1,0,68.468,41.017h0A27.387,27.387,0,0,0,41.082,13.629m.444,28.288-2.849,9.612H53.914a.782.782,0,0,1,.749,1l-1.325,4.564a1.047,1.047,0,0,1-1.007.755H29.058l3.935-13.289-4.352,1.325.961-3.107,4.359-1.325,5.524-18.668a1.039,1.039,0,0,1,1-.762h5.9a.783.783,0,0,1,.755.994L42.5,38.8l4.352-1.325-.934,3.16Z" transform="translate(-13.443 -13.379)" fill="none" stroke="#000" stroke-width="0.5"/>
</svg>
