<svg id="Layer_1" data-name="Layer 1" xmlns="http://www.w3.org/2000/svg" viewBox="0 0 318.99 318.99"><defs><style>.cls-1{fill:none;stroke:#000;stroke-linecap:round;stroke-linejoin:round;stroke-width:1.13px;}.cls-2{fill:#fc5c39;}.cls-3{fill:#c6d3d5;}.cls-4{fill:#222;}</style></defs><path id="Coin_mono_white" data-name="Coin mono white" class="cls-1" d="M159.26,87.64a68.52,68.52,0,1,0,68.52,68.52A68.51,68.51,0,0,0,159.26,87.64Zm1.11,70.78-7.12,24.05h38.12a2,2,0,0,1,1.95,2,2,2,0,0,1-.08.54l-3.31,11.42a2.63,2.63,0,0,1-2.52,1.89H129.18L139,165l-10.89,3.32,2.4-7.78,10.91-3.31,13.82-46.71a2.62,2.62,0,0,1,2.5-1.91h14.75a1.94,1.94,0,0,1,1.89,2.49l-11.6,39.5,10.89-3.32-2.34,7.91Z"/><circle class="cls-1" cx="159.26" cy="156.16" r="97.51"/><circle class="cls-1" cx="159.5" cy="156.41" r="126.47"/><circle class="cls-2" cx="98.31" cy="46.82" r="13.04"/><circle class="cls-3" cx="222.18" cy="229.82" r="13.04"/><circle class="cls-3" cx="43.06" cy="110.34" r="13.04"/><circle class="cls-3" cx="163.22" cy="282.87" r="13.04"/><circle class="cls-2" cx="278.05" cy="201.9" r="13.04"/><circle class="cls-4" cx="180.28" cy="60.65" r="13.04"/><circle class="cls-4" cx="85.27" cy="216.78" r="13.04"/></svg>