<svg id="Layer_1" data-name="Layer 1" xmlns="http://www.w3.org/2000/svg" viewBox="0 0 722 722"><defs><style>.cls-1{fill:none;stroke:#000;}</style></defs><circle class="cls-1" cx="510.73" cy="130" r="116.14"/><circle class="cls-1" cx="361" cy="592" r="116.14"/><circle class="cls-1" cx="605.12" cy="414.32" r="116.14"/><ellipse id="Ellipse_7" data-name="Ellipse 7" class="cls-1" cx="516.64" cy="123.67" rx="34.93" ry="53.2" transform="translate(73.85 417.17) rotate(-47)"/><path id="Path_102" data-name="Path 102" class="cls-1" d="M548.43,152.16c-7.31,7.84-20.81,7.91-34.19,1.38A63.14,63.14,0,0,1,499,143c-17.12-16-22.76-37.74-12.59-48.64s32.27-6.79,49.39,9.17a62.68,62.68,0,0,1,12.26,15.61C554.92,131.66,555.52,144.55,548.43,152.16Z"/><path id="Path_103" data-name="Path 103" class="cls-1" d="M465.91,100.06c-13.15,14.11-6.4,41.79,15.09,61.83s49.57,24.84,62.73,10.73L555.54,160"/><line id="Line_16" data-name="Line 16" class="cls-1" x1="477.73" y1="87.39" x2="465.92" y2="100.06"/><line id="Line_17" data-name="Line 17" class="cls-1" x1="523.62" y1="166.61" x2="511.8" y2="179.28"/><line id="Line_18" data-name="Line 18" class="cls-1" x1="473.66" y1="120.03" x2="461.84" y2="132.7"/><line id="Line_19" data-name="Line 19" class="cls-1" x1="471.13" y1="105.11" x2="459.31" y2="117.78"/><line id="Line_20" data-name="Line 20" class="cls-1" x1="538.39" y1="167.83" x2="526.57" y2="180.5"/><line id="Line_21" data-name="Line 21" class="cls-1" x1="492.99" y1="149.38" x2="481.17" y2="162.05"/><line id="Line_22" data-name="Line 22" class="cls-1" x1="507.24" y1="159.96" x2="495.42" y2="172.63"/><line id="Line_23" data-name="Line 23" class="cls-1" x1="481.85" y1="136.28" x2="470.03" y2="148.95"/><circle class="cls-1" cx="209.16" cy="130" r="116.14"/><rect class="cls-1" x="173.46" y="61.62" width="71.4" height="136.77" rx="4.91"/><line class="cls-1" x1="225.93" y1="190.41" x2="192.39" y2="190.41"/><polyline class="cls-1" points="228.41 61.62 223.15 70.86 194.87 70.86 189.92 61.62"/><polygon class="cls-1" points="348.32 597.88 335.12 667.42 401.58 584.79 370.44 584.79 383.64 516.57 320.42 597.88 348.32 597.88"/><path id="Path_108" data-name="Path 108" class="cls-1" d="M599.66,425.52,583.8,409.67a24.55,24.55,0,0,0-34.72,34.72L565,460.29"/><path id="Path_109" data-name="Path 109" class="cls-1" d="M634.38,390.8l-15.85-15.86a24.56,24.56,0,0,0-34.73,34.73l15.9,15.89"/><path id="Path_110" data-name="Path 110" class="cls-1" d="M610.57,403.12,626.43,419a24.55,24.55,0,0,0,34.72-34.72l-15.89-15.9"/><path id="Path_111" data-name="Path 111" class="cls-1" d="M575.85,437.85,591.7,453.7A24.55,24.55,0,1,0,626.43,419l-15.9-15.9"/><circle class="cls-1" cx="116.88" cy="412.16" r="116.14"/><rect class="cls-1" x="42.37" y="384.22" width="149.02" height="14.01"/><path id="Coin_mono_white" data-name="Coin mono white" class="cls-1" d="M71.45,416A18.06,18.06,0,1,0,89.51,434,18.06,18.06,0,0,0,71.45,416Zm.29,18.66-1.88,6.33h10a.52.52,0,0,1,.51.52.32.32,0,0,1,0,.14l-.87,3a.69.69,0,0,1-.66.5H63.52l2.59-8.76-2.87.87.64-2.05,2.87-.87L70.4,422a.68.68,0,0,1,.66-.5h3.88a.51.51,0,0,1,.52.51.59.59,0,0,1,0,.14l-3.06,10.41,2.87-.87-.61,2.08Z"/><rect class="cls-1" x="42.37" y="368.95" width="149.02" height="94" rx="7.04"/></svg>