<svg id="Layer_1" data-name="Layer 1" xmlns="http://www.w3.org/2000/svg" viewBox="0 0 318.99 318.99"><defs><style>.cls-1{fill:#c6d3d5;}.cls-2{fill:none;stroke:#000;stroke-linecap:round;stroke-linejoin:round;stroke-width:1.13px;}.cls-3{fill:#fc5c39;}.cls-4{fill:#222;}</style></defs><rect class="cls-1" x="41.28" y="54.52" width="236.44" height="22.22"/><path id="Coin_mono_white" data-name="Coin mono white" class="cls-2" d="M80.5,112.92a21.75,21.75,0,1,0,21.75,21.75A21.75,21.75,0,0,0,80.5,112.92Zm.36,22.47L78.59,143h12.1a.62.62,0,0,1,.62.63,1.11,1.11,0,0,1,0,.17l-1.05,3.62a.83.83,0,0,1-.8.6H71l3.13-10.55-3.46,1,.77-2.47,3.46-1,4.39-14.82a.81.81,0,0,1,.79-.61h4.68a.63.63,0,0,1,.63.62.51.51,0,0,1,0,.17l-3.68,12.54,3.46-1.06-.75,2.51Z"/><rect class="cls-2" x="41.28" y="36.02" width="236.44" height="149.14" rx="10.4"/><line class="cls-2" x1="92.23" y1="186.08" x2="92.23" y2="237.31"/><polyline class="cls-2" points="99.34 232.01 92.23 239.12 85.12 232.01"/><line class="cls-2" x1="158.09" y1="186.08" x2="158.09" y2="237.31"/><polyline class="cls-2" points="165.2 232.01 158.09 239.12 150.97 232.01"/><line class="cls-2" x1="226.77" y1="186.08" x2="226.77" y2="237.31"/><polyline class="cls-2" points="233.88 232.01 226.76 239.12 219.65 232.01"/><path class="cls-2" d="M238.32,264a1.64,1.64,0,0,0-1.64-1.54h-1.32v-1.58a7.39,7.39,0,0,0-14.78,0v1.58h-1.31a1.66,1.66,0,0,0-1.65,1.54l-1.12,17.21a1.64,1.64,0,0,0,1.64,1.75h19.67a1.64,1.64,0,0,0,1.64-1.75Zm-14.75-3.12a4.41,4.41,0,1,1,8.81,0v1.58h-8.81Z"/><polygon class="cls-2" points="104.64 274.91 87.5 274.91 85.17 261.63 106.96 261.63 104.64 274.91"/><polyline class="cls-2" points="85.17 261.63 83.88 256.48 77.49 256.48"/><circle class="cls-2" cx="88.71" cy="279.75" r="2.03"/><circle class="cls-2" cx="103.42" cy="279.75" r="2.03"/><rect class="cls-2" x="146.13" y="259.88" width="23.91" height="22.44"/><path class="cls-2" d="M158.09,282.31V259.88s.64-5.42,2.38-5.71,4.23,2.61-2.38,5.71"/><path class="cls-2" d="M158.09,259.83c-.36-7.3-4-6.09-4.38-4.37s4.38,4.37,4.38,4.37"/><line class="cls-2" x1="170.04" y1="271.1" x2="146.13" y2="271.1"/><circle class="cls-1" cx="226.77" cy="185.16" r="15.17"/><circle class="cls-3" cx="92.23" cy="186.08" r="15.17"/><circle class="cls-4" cx="158.09" cy="185.16" r="15.17"/></svg>