<svg id="Layer_1" data-name="Layer 1" xmlns="http://www.w3.org/2000/svg" viewBox="0 0 318.99 318.99"><defs><style>.cls-1{fill:none;stroke:#000;stroke-linecap:round;stroke-linejoin:round;stroke-width:1.13px;}.cls-2{fill:#fff;}.cls-3{fill:#fc5c39;}.cls-4{fill:#222;}</style></defs><path id="Path_108" data-name="Path 108" class="cls-1" d="M157,164.65l-7.29-7.29a11.29,11.29,0,0,0-16,16l7.31,7.3"/><path id="Path_109" data-name="Path 109" class="cls-1" d="M173,148.68l-7.3-7.29a11.29,11.29,0,0,0-16,16l7.31,7.31"/><path id="Path_110" data-name="Path 110" class="cls-1" d="M162,154.35l7.29,7.29a11.29,11.29,0,0,0,16-16L178,138.36"/><path id="Path_111" data-name="Path 111" class="cls-1" d="M146,170.32l7.29,7.29a11.29,11.29,0,0,0,16-16L162,154.33"/><circle class="cls-1" cx="159.5" cy="159.5" r="42.41"/><line class="cls-1" x1="159.5" y1="201.9" x2="159.5" y2="299"/><line class="cls-1" x1="159.5" y1="20" x2="159.5" y2="117.09"/><line class="cls-1" x1="117.09" y1="159.5" x2="20" y2="159.5"/><line class="cls-1" x1="299" y1="159.5" x2="201.9" y2="159.5"/><line class="cls-1" x1="190.24" y1="128.75" x2="257.14" y2="61.85"/><line class="cls-1" x1="61.85" y1="257.14" x2="128.75" y2="190.24"/><line class="cls-1" x1="190.24" y1="190.24" x2="257.14" y2="257.14"/><line class="cls-1" x1="61.85" y1="60.85" x2="128.75" y2="128.75"/><polygon class="cls-1" points="206.6 113.01 159.93 93.32 113.01 112.39 93.32 159.06 112.39 205.99 159.06 225.68 205.99 206.6 225.68 159.93 206.6 113.01"/><polygon class="cls-1" points="231.41 88.52 160.16 58.45 88.52 87.58 58.45 158.83 87.58 230.48 158.83 260.54 230.48 231.41 260.54 160.16 231.41 88.52"/><circle class="cls-2" cx="257.95" cy="60.85" r="13.04"/><circle class="cls-2" cx="61.85" cy="256.73" r="13.04"/><circle class="cls-3" cx="159.92" cy="27.3" r="13.04"/><circle class="cls-3" cx="257.14" cy="256.73" r="13.04"/><circle class="cls-4" cx="61.85" cy="60.85" r="13.04"/><circle class="cls-4" cx="159.32" cy="291" r="13.04"/><circle class="cls-4" cx="289.28" cy="159.5" r="13.04"/><circle class="cls-3" cx="29.71" cy="159.5" r="13.04"/></svg>